{"asset":{"version":"2.0","generator":"Blockbench 4.2.5 glTF exporter"},"scenes":[{"nodes":[11],"name":"blockbench_export"}],"scene":0,"nodes":[{"name":"Hull2","mesh":0},{"translation":[0,0.5,-0.125],"name":"Window","mesh":1},{"name":"Hull1","mesh":2},{"rotation":[0.0004220114474977228,0.05692136477179638,0.14654898119341175,0.987564264364617],"translation":[0,0.015625,-0.015625],"name":"WingL","mesh":3},{"rotation":[0.000421920036168354,-0.05692151769412221,-0.14654928145433385,0.9875642110324266],"translation":[0,0.015625,-0.015625],"name":"WingR","mesh":4},{"rotation":[0,0,0.48098876891938763,0.8767267557075077],"translation":[-0.34375,0.28125,0.203125],"name":"CannonL","mesh":5},{"rotation":[0,0,0.48098876891938763,0.8767267557075077],"translation":[-0.34375,0.28125,-0.03125],"name":"MuzzleL","mesh":6},{"rotation":[0,0,-0.48098876891938763,0.8767267557075077],"translation":[0.34375,0.28125,-0.03125],"name":"MuzzleR","mesh":7},{"rotation":[0,0,-0.48098876891938763,0.8767267557075077],"translation":[0.34375,0.28125,0.203125],"name":"CannonR","mesh":8},{"rotation":[0,0,0.3826834323650898,0.9238795325112867],"translation":[0,0.375,0.390625],"name":"Engine","mesh":9},{"rotation":[-0.3214394653031616,0,0,0.9469301294951057],"translation":[0,0.359375,-0.5078125],"name":"Wheel","mesh":10},{"children":[0,1,2,3,4,5,6,7,8,9,10]}],"bufferViews":[{"buffer":0,"byteOffset":0,"byteLength":864,"target":34962,"byteStride":12},{"buffer":0,"byteOffset":864,"byteLength":864,"target":34962,"byteStride":12},{"buffer":0,"byteOffset":1728,"byteLength":576,"target":34962,"byteStride":8},{"buffer":0,"byteOffset":2304,"byteLength":216,"target":34963},{"buffer":0,"byteOffset":2520,"byteLength":264,"target":34962,"byteStride":12},{"buffer":0,"byteOffset":2784,"byteLength":264,"target":34962,"byteStride":12},{"buffer":0,"byteOffset":3048,"byteLength":176,"target":34962,"byteStride":8},{"buffer":0,"byteOffset":3224,"byteLength":60,"target":34963},{"buffer":0,"byteOffset":3284,"byteLength":480,"target":34962,"byteStride":12},{"buffer":0,"byteOffset":3764,"byteLength":480,"target":34962,"byteStride":12},{"buffer":0,"byteOffset":4244,"byteLength":320,"target":34962,"byteStride":8},{"buffer":0,"byteOffset":4564,"byteLength":120,"target":34963},{"buffer":0,"byteOffset":4684,"byteLength":288,"target":34962,"byteStride":12},{"buffer":0,"byteOffset":4972,"byteLength":288,"target":34962,"byteStride":12},{"buffer":0,"byteOffset":5260,"byteLength":192,"target":34962,"byteStride":8},{"buffer":0,"byteOffset":5452,"byteLength":72,"target":34963},{"buffer":0,"byteOffset":5524,"byteLength":288,"target":34962,"byteStride":12},{"buffer":0,"byteOffset":5812,"byteLength":288,"target":34962,"byteStride":12},{"buffer":0,"byteOffset":6100,"byteLength":192,"target":34962,"byteStride":8},{"buffer":0,"byteOffset":6292,"byteLength":72,"target":34963},{"buffer":0,"byteOffset":6364,"byteLength":672,"target":34962,"byteStride":12},{"buffer":0,"byteOffset":7036,"byteLength":672,"target":34962,"byteStride":12},{"buffer":0,"byteOffset":7708,"byteLength":448,"target":34962,"byteStride":8},{"buffer":0,"byteOffset":8156,"byteLength":168,"target":34963},{"buffer":0,"byteOffset":8324,"byteLength":288,"target":34962,"byteStride":12},{"buffer":0,"byteOffset":8612,"byteLength":288,"target":34962,"byteStride":12},{"buffer":0,"byteOffset":8900,"byteLength":192,"target":34962,"byteStride":8},{"buffer":0,"byteOffset":9092,"byteLength":72,"target":34963},{"buffer":0,"byteOffset":9164,"byteLength":288,"target":34962,"byteStride":12},{"buffer":0,"byteOffset":9452,"byteLength":288,"target":34962,"byteStride":12},{"buffer":0,"byteOffset":9740,"byteLength":192,"target":34962,"byteStride":8},{"buffer":0,"byteOffset":9932,"byteLength":72,"target":34963},{"buffer":0,"byteOffset":10004,"byteLength":672,"target":34962,"byteStride":12},{"buffer":0,"byteOffset":10676,"byteLength":672,"target":34962,"byteStride":12},{"buffer":0,"byteOffset":11348,"byteLength":448,"target":34962,"byteStride":8},{"buffer":0,"byteOffset":11796,"byteLength":168,"target":34963},{"buffer":0,"byteOffset":11964,"byteLength":864,"target":34962,"byteStride":12},{"buffer":0,"byteOffset":12828,"byteLength":864,"target":34962,"byteStride":12},{"buffer":0,"byteOffset":13692,"byteLength":576,"target":34962,"byteStride":8},{"buffer":0,"byteOffset":14268,"byteLength":216,"target":34963},{"buffer":0,"byteOffset":14484,"byteLength":1632,"target":34962,"byteStride":12},{"buffer":0,"byteOffset":16116,"byteLength":1632,"target":34962,"byteStride":12},{"buffer":0,"byteOffset":17748,"byteLength":1088,"target":34962,"byteStride":8},{"buffer":0,"byteOffset":18836,"byteLength":408,"target":34963}],"buffers":[{"byteLength":19244,"uri":"data:application/octet-stream;base64,"}],"accessors":[{"bufferView":0,"componentType":5126,"count":72,"max":[0.125,0.4053526818752289,-0.11249999701976776],"min":[-0.125,0.25,-0.625],"type":"VEC3"},{"bufferView":1,"componentType":5126,"count":72,"max":[1,1,0.8741572499275208],"min":[-1,-1,-1],"type":"VEC3"},{"bufferView":2,"componentType":5126,"count":72,"max":[0.65625,1],"min":[0,0.2319306880235672],"type":"VEC2"},{"bufferView":3,"componentType":5123,"count":108,"max":[71],"min":[0],"type":"SCALAR"},{"bufferView":4,"componentType":5126,"count":22,"max":[0.125,-0.015625,0],"min":[-0.125,-0.125,-0.5],"type":"VEC3"},{"bufferView":5,"componentType":5126,"count":22,"max":[1,1,0],"min":[-1,0,-0.33035042881965637],"type":"VEC3"},{"bufferView":6,"componentType":5126,"count":22,"max":[0.25,1],"min":[0,0.6689124703407288],"type":"VEC2"},{"bufferView":7,"componentType":5123,"count":30,"max":[21],"min":[0],"type":"SCALAR"},{"bufferView":8,"componentType":5126,"count":40,"max":[0.125,0.484375,0.4375],"min":[-0.125,0.25,-0.125],"type":"VEC3"},{"bufferView":9,"componentType":5126,"count":40,"max":[0.985938549041748,1,0.985938549041748],"min":[-1,-1,-1],"type":"VEC3"},{"bufferView":10,"componentType":5126,"count":40,"max":[0.5625,1],"min":[0,0.4375],"type":"VEC2"},{"bufferView":11,"componentType":5123,"count":60,"max":[39],"min":[0],"type":"SCALAR"},{"bufferView":12,"componentType":5126,"count":24,"max":[0.046875,0.45040011405944824,0.43125417828559875],"min":[-0.5160635113716125,0.32540011405944824,-0.05035439506173134],"type":"VEC3"},{"bufferView":13,"componentType":5126,"count":24,"max":[1,0.999691903591156,0.9825361967086792],"min":[-1,-0.9963057041168213,-0.9825361967086792],"type":"VEC3"},{"bufferView":14,"componentType":5126,"count":24,"max":[1,1],"min":[0,0.625],"type":"VEC2"},{"bufferView":15,"componentType":5123,"count":36,"max":[23],"min":[0],"type":"SCALAR"},{"bufferView":16,"componentType":5126,"count":24,"max":[0.5160635709762573,0.45040011405944824,0.43125230073928833],"min":[-0.046875,0.32540011405944824,-0.05035625025629997],"type":"VEC3"},{"bufferView":17,"componentType":5126,"count":24,"max":[1,0.999691903591156,0.982536256313324],"min":[-1,-0.9963057041168213,-0.982536256313324],"type":"VEC3"},{"bufferView":18,"componentType":5126,"count":24,"max":[1,1],"min":[0,0.625],"type":"VEC2"},{"bufferView":19,"componentType":5123,"count":36,"max":[23],"min":[0],"type":"SCALAR"},{"bufferView":20,"componentType":5126,"count":56,"max":[0.046875,0.046875,0.24687500298023224],"min":[-0.046875,-0.046875,-0.234375],"type":"VEC3"},{"bufferView":21,"componentType":5126,"count":56,"max":[1,1,1],"min":[-1,-1,-1],"type":"VEC3"},{"bufferView":22,"componentType":5126,"count":56,"max":[0.6875,1],"min":[0,0.25],"type":"VEC2"},{"bufferView":23,"componentType":5123,"count":84,"max":[55],"min":[0],"type":"SCALAR"},{"bufferView":24,"componentType":5126,"count":24,"max":[0.01875000074505806,0.01875000074505806,0],"min":[-0.01875000074505806,-0.01875000074505806,-0.125],"type":"VEC3"},{"bufferView":25,"componentType":5126,"count":24,"max":[1,1,1],"min":[-1,-1,-1],"type":"VEC3"},{"bufferView":26,"componentType":5126,"count":24,"max":[0.25,1],"min":[0,0.75],"type":"VEC2"},{"bufferView":27,"componentType":5123,"count":36,"max":[23],"min":[0],"type":"SCALAR"},{"bufferView":28,"componentType":5126,"count":24,"max":[0.01875000074505806,0.01875000074505806,0],"min":[-0.01875000074505806,-0.01875000074505806,-0.125],"type":"VEC3"},{"bufferView":29,"componentType":5126,"count":24,"max":[1,1,1],"min":[-1,-1,-1],"type":"VEC3"},{"bufferView":30,"componentType":5126,"count":24,"max":[0.3125,1],"min":[0,0.6875],"type":"VEC2"},{"bufferView":31,"componentType":5123,"count":36,"max":[23],"min":[0],"type":"SCALAR"},{"bufferView":32,"componentType":5126,"count":56,"max":[0.046875,0.046875,0.24687500298023224],"min":[-0.046875,-0.046875,-0.234375],"type":"VEC3"},{"bufferView":33,"componentType":5126,"count":56,"max":[1,1,1],"min":[-1,-1,-1],"type":"VEC3"},{"bufferView":34,"componentType":5126,"count":56,"max":[0.75,1],"min":[0.0625,0.0625],"type":"VEC2"},{"bufferView":35,"componentType":5123,"count":84,"max":[55],"min":[0],"type":"SCALAR"},{"bufferView":36,"componentType":5126,"count":72,"max":[0.08124999701976776,0.08124999701976776,0.15625],"min":[-0.08124999701976776,-0.08124999701976776,-0.0625],"type":"VEC3"},{"bufferView":37,"componentType":5126,"count":72,"max":[1,1,1],"min":[-1,-1,-1],"type":"VEC3"},{"bufferView":38,"componentType":5126,"count":72,"max":[0.6000000238418579,1],"min":[0,0.4000000059604645],"type":"VEC2"},{"bufferView":39,"componentType":5123,"count":108,"max":[71],"min":[0],"type":"SCALAR"},{"bufferView":40,"componentType":5126,"count":136,"max":[0.05926864221692085,-0.001720583881251514,0.0546875],"min":[-0.05926864221692085,-0.06912912428379059,-0.0078125],"type":"VEC3"},{"bufferView":41,"componentType":5126,"count":136,"max":[1,1,1],"min":[-1,-1,-1],"type":"VEC3"},{"bufferView":42,"componentType":5126,"count":136,"max":[0.375,1],"min":[0,0.6333500146865845],"type":"VEC2"},{"bufferView":43,"componentType":5123,"count":204,"max":[135],"min":[0],"type":"SCALAR"}],"materials":[{"pbrMetallicRoughness":{"metallicFactor":0,"roughnessFactor":1,"baseColorTexture":{"index":0}},"alphaMode":"MASK","alphaCutoff":0.05,"doubleSided":true},{"pbrMetallicRoughness":{"metallicFactor":0,"roughnessFactor":1,"baseColorTexture":{"index":1}},"alphaMode":"MASK","alphaCutoff":0.05,"doubleSided":true},{"pbrMetallicRoughness":{"metallicFactor":0,"roughnessFactor":1,"baseColorTexture":{"index":2}},"alphaMode":"MASK","alphaCutoff":0.05,"doubleSided":true},{"pbrMetallicRoughness":{"metallicFactor":0,"roughnessFactor":1,"baseColorTexture":{"index":3}},"alphaMode":"MASK","alphaCutoff":0.05,"doubleSided":true},{"pbrMetallicRoughness":{"metallicFactor":0,"roughnessFactor":1,"baseColorTexture":{"index":4}},"alphaMode":"MASK","alphaCutoff":0.05,"doubleSided":true},{"pbrMetallicRoughness":{"metallicFactor":0,"roughnessFactor":1,"baseColorTexture":{"index":5}},"alphaMode":"MASK","alphaCutoff":0.05,"doubleSided":true},{"pbrMetallicRoughness":{"metallicFactor":0,"roughnessFactor":1,"baseColorTexture":{"index":6}},"alphaMode":"MASK","alphaCutoff":0.05,"doubleSided":true}],"textures":[{"sampler":0,"source":0,"name":"Hull.png"},{"sampler":1,"source":1,"name":"Window.png"},{"sampler":2,"source":2,"name":"Wings.png"},{"sampler":3,"source":3,"name":"Cannons.png"},{"sampler":4,"source":4,"name":"Muzzles.png"},{"sampler":5,"source":5,"name":"Engine.png"},{"sampler":6,"source":6,"name":"Wheel.png"}],"samplers":[{"magFilter":9728,"minFilter":9728,"wrapS":33071,"wrapT":33071},{"magFilter":9728,"minFilter":9728,"wrapS":33071,"wrapT":33071},{"magFilter":9728,"minFilter":9728,"wrapS":33071,"wrapT":33071},{"magFilter":9728,"minFilter":9728,"wrapS":33071,"wrapT":33071},{"magFilter":9728,"minFilter":9728,"wrapS":33071,"wrapT":33071},{"magFilter":9728,"minFilter":9728,"wrapS":33071,"wrapT":33071},{"magFilter":9728,"minFilter":9728,"wrapS":33071,"wrapT":33071}],"images":[{"mimeType":"image/png","uri":"data:image/png;base64,"},{"mimeType":"image/png","uri":"data:image/png;base64,"},{"mimeType":"image/png","uri":"data:image/png;base64,"},{"mimeType":"image/png","uri":"data:image/png;base64,"},{"mimeType":"image/png","uri":"data:image/png;base64,"},{"mimeType":"image/png","uri":"data:image/png;base64,"},{"mimeType":"image/png","uri":"data:image/png;base64,"}],"meshes":[{"primitives":[{"mode":4,"attributes":{"POSITION":0,"NORMAL":1,"TEXCOORD_0":2},"indices":3,"material":0}]},{"primitives":[{"mode":4,"attributes":{"POSITION":4,"NORMAL":5,"TEXCOORD_0":6},"indices":7,"material":1}]},{"primitives":[{"mode":4,"attributes":{"POSITION":8,"NORMAL":9,"TEXCOORD_0":10},"indices":11,"material":0}]},{"primitives":[{"mode":4,"attributes":{"POSITION":12,"NORMAL":13,"TEXCOORD_0":14},"indices":15,"material":2}]},{"primitives":[{"mode":4,"attributes":{"POSITION":16,"NORMAL":17,"TEXCOORD_0":18},"indices":19,"material":2}]},{"primitives":[{"mode":4,"attributes":{"POSITION":20,"NORMAL":21,"TEXCOORD_0":22},"indices":23,"material":3}]},{"primitives":[{"mode":4,"attributes":{"POSITION":24,"NORMAL":25,"TEXCOORD_0":26},"indices":27,"material":4}]},{"primitives":[{"mode":4,"attributes":{"POSITION":28,"NORMAL":29,"TEXCOORD_0":30},"indices":31,"material":4}]},{"primitives":[{"mode":4,"attributes":{"POSITION":32,"NORMAL":33,"TEXCOORD_0":34},"indices":35,"material":3}]},{"primitives":[{"mode":4,"attributes":{"POSITION":36,"NORMAL":37,"TEXCOORD_0":38},"indices":39,"material":5}]},{"primitives":[{"mode":4,"attributes":{"POSITION":40,"NORMAL":41,"TEXCOORD_0":42},"indices":43,"material":6}]}]}